<?xml version="1.0" encoding="UTF-8" standalone="no"?>
<!DOCTYPE svg PUBLIC "-//W3C//DTD SVG 1.1//EN" "http://www.w3.org/Graphics/SVG/1.1/DTD/svg11.dtd">
<svg width="100%" height="100%" viewBox="0 0 1536 1536" version="1.1" xmlns="http://www.w3.org/2000/svg" xmlns:xlink="http://www.w3.org/1999/xlink" xml:space="preserve" xmlns:serif="http://www.serif.com/" style="fill-rule:evenodd;clip-rule:evenodd;stroke-linejoin:round;stroke-miterlimit:2;">
    <path d="M919,1175L919,1018C919,984.667 909.333,968 890,968C878.667,968 867.667,973.333 857,984L857,1208C867.667,1218.67 878.667,1224 890,1224C909.333,1224 919,1207.67 919,1175ZM1103,1053L1169,1053L1169,1019C1169,985 1158,968 1136,968C1114,968 1103,985 1103,1019L1103,1053ZM532,787L532,857L452,857L452,1280L378,1280L378,857L300,857L300,787L532,787ZM733,913L733,1280L666,1280L666,1240C640,1270 614.667,1285 590,1285C568,1285 554,1275.67 548,1257C544,1245.67 542,1227.67 542,1203L542,913L608,913L608,1183C608,1199 608.333,1207.67 609,1209C609.667,1219 614.667,1224 624,1224C637.333,1224 651.333,1213.67 666,1193L666,913L733,913ZM985,1024L985,1170C985,1204.67 982.667,1229 978,1243C970,1271 952.333,1285 925,1285C901.667,1285 879,1271.33 857,1244L857,1280L790,1280L790,787L857,787L857,948C878.333,921.333 901,908 925,908C952.333,908 970,922 978,950C982.667,964 985,988.667 985,1024ZM1236,1153L1236,1162C1236,1181.33 1235.33,1195.67 1234,1205C1232,1219.67 1227,1233 1219,1245C1201,1271.67 1174.33,1285 1139,1285C1104.33,1285 1077.33,1272.33 1058,1247C1044,1229 1037,1200.33 1037,1161L1037,1032C1037,992.667 1043.67,964 1057,946C1076.33,920.667 1103,908 1137,908C1171,908 1197,920.667 1215,946C1229,965.333 1236,994 1236,1032L1236,1108L1103,1108L1103,1173C1103,1207 1114.33,1224 1137,1224C1153,1224 1163,1215.33 1167,1198C1167,1197.33 1167.17,1195 1167.5,1191C1167.83,1187 1168,1181.5 1168,1174.5L1168,1153L1236,1153ZM785,329L785,485C785,519 774.333,536 753,536C731.667,536 721,519 721,485L721,329C721,294.333 731.667,277 753,277C774.333,277 785,294.333 785,329ZM1318,1042C1318,924 1311.67,837.333 1299,782C1292.33,752.667 1278,728.167 1256,708.5C1234,688.833 1208.67,677.333 1180,674C1089.33,664 952,659 768,659C584.667,659 447.667,664 357,674C327.667,677.333 302.167,688.833 280.5,708.5C258.833,728.167 244.667,752.667 238,782C224.667,840 218,926.667 218,1042C218,1159.33 224.667,1246 238,1302C244.667,1330.67 258.833,1355 280.5,1375C302.167,1395 327.333,1406.67 356,1410C447.333,1420 584.667,1425 768,1425C951.333,1425 1088.67,1420 1180,1410C1208.67,1406.67 1233.83,1395 1255.5,1375C1277.17,1355 1291.33,1330.67 1298,1302C1311.33,1246 1318,1159.33 1318,1042ZM563,391L653,95L578,95L527,290L474,95L396,95C400.667,110.333 408.333,133.333 419,164L443,233C466.333,301.667 481.667,354.333 489,391L489,592L563,592L563,391ZM852,472L852,342C852,303.333 845,274.333 831,255C811.667,229.667 785.667,217 753,217C719,217 693,229.667 675,255C661,274.333 654,303.333 654,342L654,472C654,510.667 661,539.667 675,559C693,584.333 719,597 753,597C785.667,597 811.667,584.333 831,559C845,541 852,512 852,472ZM1033,592L1100,592L1100,222L1033,222L1033,505C1018.33,525.667 1004.33,536 991,536C981,536 975.667,530.667 975,520C974.333,518.667 974,510 974,494L974,222L907,222L907,515C907,539.667 909,558 913,570C920.333,588 934.667,597 956,597C980,597 1005.67,582 1033,552L1033,592ZM1536,288L1536,1248C1536,1327.33 1507.83,1395.17 1451.5,1451.5C1395.17,1507.83 1327.33,1536 1248,1536L288,1536C208.667,1536 140.833,1507.83 84.5,1451.5C28.167,1395.17 0,1327.33 0,1248L0,288C0,208.667 28.167,140.833 84.5,84.5C140.833,28.167 208.667,0 288,0L1248,0C1327.33,0 1395.17,28.167 1451.5,84.5C1507.83,140.833 1536,208.667 1536,288Z" style="fill:rgb(242,0,0);fill-rule:nonzero;"/>
</svg>
